<svg width="196" height="21" viewBox="0 0 196 21" fill="none" xmlns="http://www.w3.org/2000/svg">
<path d="M165.428 0.0256285C176.881 0.0256285 185.612 -0.457288 186.492 2.76942C187.142 5.14832 179.362 10.5305 177.965 11.4962C181.325 6.95037 183.276 2.20433 165.428 0.0256285Z" fill="#233C98"/>
<path d="M189.78 0.0491219C191.225 0.0255721 193.212 0.108048 193.585 1.59186C193.585 1.59186 196.138 1.53304 195.994 3.82951C195.657 3.26422 192.514 2.56957 184.806 7.25666C186.383 5.77282 187.925 4.24172 187.696 2.59301C187.467 0.956037 185.155 0.284657 184.336 0.0491219H189.78Z" fill="#233C98"/>
<path fill-rule="evenodd" clip-rule="evenodd" d="M62.5775 9.24764C63.842 9.24764 64.7213 9.80118 65.1307 10.7904V9.40096H67.7561L67.7683 9.38901V17.315C67.7683 19.6349 66.2266 21.001 63.6012 21.001C61.4093 21.0009 59.868 19.9762 59.4826 18.2568L61.9756 17.8565C62.1442 18.5631 62.7462 18.9871 63.6012 18.9871C64.5526 18.9871 65.1307 18.4101 65.1307 17.4444V15.7603C64.7213 16.7495 63.83 17.303 62.5775 17.303C60.6506 17.303 59.5546 15.8425 59.5546 13.3223C59.5547 10.8022 60.6506 9.24769 62.5775 9.24764ZM63.8061 11.0142C62.7101 11.0142 62.0599 11.9566 62.0599 13.2638C62.0599 14.53 62.67 15.4648 63.7045 15.522L63.8061 15.5365C64.8899 15.5364 65.3234 14.453 65.3234 13.2753C65.3234 12.9221 65.2753 12.5806 65.191 12.2626C65.179 12.2156 65.1668 12.1802 65.1548 12.1332C64.938 11.4855 64.5166 11.0142 63.8061 11.0142Z" fill="#080D52"/>
<path d="M34.9743 11.191H32.6377V14.4529C32.6377 15.0652 33.0592 15.4425 33.7938 15.4425C34.1791 15.4425 34.5407 15.3483 34.8297 15.1952V17.0912C34.2878 17.3385 33.6012 17.4798 32.9508 17.4798C31.1082 17.4798 30.0001 16.4904 30.0001 14.8181V11.179H28.5308V9.436H34.9743V11.191Z" fill="#080D52"/>
<path fill-rule="evenodd" clip-rule="evenodd" d="M110.185 9.1652C110.968 9.1652 111.594 9.33029 112.124 9.64826C112.654 9.96622 113.051 10.4254 113.328 11.0142C113.605 11.603 113.738 12.2981 113.738 13.0989V13.617H107.909C107.909 14.1234 107.993 14.5708 108.162 14.9829C108.331 15.3951 108.595 15.7133 108.945 15.9606C109.294 16.2079 109.728 16.3258 110.258 16.3258C110.787 16.3257 111.221 16.2076 111.594 15.9721C111.967 15.7366 112.208 15.395 112.317 14.9475H113.69C113.593 15.4891 113.365 15.9368 113.027 16.3019C112.69 16.6669 112.281 16.9497 111.799 17.1381C111.317 17.3266 110.811 17.4209 110.293 17.4209C109.535 17.4209 108.872 17.2558 108.294 16.9378C107.716 16.6199 107.271 16.1489 106.946 15.5484C106.62 14.9478 106.464 14.2176 106.464 13.3697C106.464 12.5219 106.608 11.8034 106.897 11.1675C107.186 10.5434 107.62 10.0485 108.174 9.69525C108.728 9.34195 109.402 9.16521 110.185 9.1652ZM110.161 10.2253C109.667 10.2253 109.234 10.343 108.897 10.5785C108.559 10.8141 108.318 11.1204 108.15 11.4972C107.981 11.874 107.909 12.2509 107.909 12.6513H112.341C112.341 12.192 112.256 11.7799 112.1 11.4148C111.943 11.0497 111.703 10.7551 111.377 10.5431C111.052 10.3311 110.655 10.2253 110.161 10.2253Z" fill="#080D52"/>
<path fill-rule="evenodd" clip-rule="evenodd" d="M146.111 9.1652C146.893 9.16522 147.519 9.33031 148.049 9.64826C148.579 9.96623 148.977 10.4253 149.254 11.0142C149.531 11.603 149.663 12.2981 149.663 13.0989V13.617H143.834C143.834 14.1233 143.919 14.5708 144.087 14.9829C144.256 15.3951 144.521 15.7133 144.87 15.9606C145.219 16.2078 145.653 16.3257 146.183 16.3258C146.713 16.3258 147.146 16.2077 147.52 15.9721C147.893 15.7366 148.134 15.395 148.242 14.9475H149.615C149.519 15.4892 149.29 15.9368 148.953 16.3019C148.615 16.6669 148.206 16.9497 147.724 17.1381C147.243 17.3266 146.737 17.4209 146.219 17.4209C145.46 17.4209 144.798 17.2558 144.22 16.9378C143.642 16.6199 143.196 16.149 142.871 15.5484C142.546 14.9478 142.389 14.2176 142.389 13.3697C142.389 12.5218 142.534 11.8034 142.823 11.1675C143.112 10.5433 143.545 10.0486 144.099 9.69525C144.653 9.34196 145.328 9.1652 146.111 9.1652ZM146.087 10.2253C145.593 10.2253 145.159 10.343 144.822 10.5785C144.485 10.814 144.244 11.1204 144.075 11.4972C143.907 11.8741 143.834 12.2509 143.834 12.6513H148.266C148.266 12.1921 148.182 11.7799 148.025 11.4148C147.869 11.0497 147.628 10.7551 147.303 10.5431C146.978 10.3311 146.58 10.2253 146.087 10.2253Z" fill="#080D52"/>
<path fill-rule="evenodd" clip-rule="evenodd" d="M77.415 9.22414C80.0164 9.22415 81.5699 10.7317 81.5699 13.3108V13.5816H75.8374C75.8977 14.7828 76.4756 15.4775 77.415 15.4775C78.1978 15.4775 78.7639 15.0772 78.9445 14.4059H81.5699C81.2688 16.2902 79.6551 17.4089 77.415 17.4089C74.8137 17.4089 73.2842 15.8898 73.2842 13.3108C73.2842 10.7317 74.8136 9.22414 77.415 9.22414ZM77.4272 11.1321C76.5722 11.1321 75.9817 11.7562 75.8733 12.8397H78.9323C78.7999 11.7563 78.2822 11.1321 77.4272 11.1321Z" fill="#080D52"/>
<path d="M118.435 9.15366C119.314 9.15368 120.024 9.3421 120.566 9.7307C121.108 10.1193 121.386 10.6846 121.41 11.4383H120.133C120.085 11.0615 119.904 10.7553 119.615 10.5315C119.314 10.3078 118.916 10.2018 118.423 10.2018C117.929 10.2018 117.483 10.3078 117.158 10.508C116.833 10.7082 116.677 11.026 116.677 11.4498C116.677 11.7324 116.797 11.9562 117.026 12.1093C117.254 12.2742 117.592 12.4039 118.049 12.5099L119.675 12.9101C120.049 13.0043 120.362 13.134 120.603 13.2988C120.843 13.4519 121.036 13.6404 121.181 13.8289C121.325 14.029 121.434 14.2294 121.494 14.4413C121.554 14.6533 121.59 14.8536 121.59 15.0538C121.59 15.5366 121.47 15.9605 121.217 16.3138C120.964 16.6671 120.615 16.9378 120.145 17.1262C119.675 17.3146 119.121 17.4089 118.459 17.4089L118.236 17.4052C117.749 17.387 117.291 17.3047 116.869 17.1501C116.388 16.9735 115.978 16.7142 115.665 16.3493C115.352 15.9842 115.147 15.5128 115.063 14.9475H116.375C116.447 15.2536 116.58 15.5246 116.773 15.7248C116.965 15.925 117.206 16.0899 117.495 16.1959C117.785 16.3019 118.098 16.3493 118.435 16.3493C118.977 16.3492 119.422 16.255 119.76 16.043C120.097 15.8428 120.265 15.5365 120.265 15.1243C120.265 14.8299 120.181 14.5945 120 14.4178C119.82 14.2412 119.555 14.1116 119.181 14.0292L117.495 13.617C116.833 13.4639 116.315 13.2283 115.918 12.8986C115.533 12.5689 115.34 12.1095 115.34 11.5207C115.34 11.0497 115.448 10.6491 115.677 10.2958C115.906 9.94249 116.255 9.6601 116.713 9.4599C117.17 9.25972 117.749 9.15366 118.435 9.15366Z" fill="#080D52"/>
<path d="M169.186 9.15366C170.065 9.15369 170.775 9.34209 171.317 9.7307C171.859 10.1193 172.136 10.6846 172.16 11.4383H170.884C170.836 11.0615 170.655 10.7553 170.366 10.5315C170.065 10.3078 169.667 10.2018 169.174 10.2018C168.68 10.2018 168.234 10.3078 167.909 10.508C167.584 10.7082 167.427 11.0259 167.427 11.4498C167.427 11.7324 167.548 11.9562 167.776 12.1093C168.005 12.2742 168.343 12.4039 168.8 12.5099L170.426 12.9101C170.8 13.0043 171.113 13.134 171.353 13.2988C171.594 13.4519 171.787 13.6405 171.931 13.8289C172.076 14.0291 172.184 14.2294 172.244 14.4413C172.305 14.6533 172.341 14.8536 172.341 15.0538C172.341 15.5366 172.22 15.9605 171.968 16.3138C171.715 16.6671 171.365 16.9378 170.896 17.1262C170.426 17.3146 169.872 17.4089 169.21 17.4089L168.987 17.4052C168.5 17.387 168.042 17.3047 167.62 17.1501C167.138 16.9734 166.729 16.7143 166.415 16.3493C166.102 15.9842 165.898 15.5128 165.814 14.9475H167.126C167.198 15.2536 167.331 15.5246 167.524 15.7248C167.716 15.925 167.957 16.0899 168.246 16.1959C168.535 16.3019 168.849 16.3493 169.186 16.3493C169.728 16.3492 170.173 16.255 170.511 16.043C170.848 15.8428 171.016 15.5365 171.016 15.1243C171.016 14.8299 170.932 14.5945 170.751 14.4178C170.593 14.2632 170.371 14.1446 170.067 14.0621L168.246 13.617C167.584 13.4639 167.066 13.2284 166.668 12.8986C166.283 12.5689 166.091 12.1095 166.091 11.5207C166.091 11.0497 166.199 10.6491 166.428 10.2958C166.657 9.94255 167.006 9.66009 167.463 9.4599C167.921 9.2597 168.499 9.15366 169.186 9.15366Z" fill="#080D52"/>
<path d="M24.1593 9.21219C26.4354 9.21223 27.7844 10.1665 27.7844 11.8035H25.3394C25.3394 11.1322 24.9059 10.7434 24.1593 10.7434C23.4608 10.7434 23.063 11.0261 23.063 11.4618C23.0631 12.0153 23.858 12.1568 24.7974 12.2981C26.1944 12.5101 27.9888 12.7926 27.9888 14.6651C27.9887 16.3844 26.5558 17.3973 24.1593 17.3974C21.7627 17.3974 20.3294 16.3962 20.3294 14.6886L22.7743 14.7002C22.7743 15.4186 23.2801 15.8307 24.1593 15.8307C24.9901 15.8307 25.4599 15.5247 25.46 14.9949C25.46 14.3236 24.6288 14.2059 23.6653 14.0646C22.2683 13.8644 20.5342 13.5932 20.5342 11.6971C20.5343 10.1427 21.8832 9.21219 24.1593 9.21219Z" fill="#080D52"/>
<path fill-rule="evenodd" clip-rule="evenodd" d="M53.0391 9.24764C54.3036 9.24764 55.1829 9.80118 55.5924 10.7904V9.37747H58.2177V17.256H55.5924V15.7603C55.1829 16.7495 54.2916 17.303 53.0391 17.303C51.1122 17.303 50.0163 15.8425 50.0163 13.3223C50.0163 10.8022 51.1123 9.24769 53.0391 9.24764ZM54.2555 11.0142C53.1596 11.0142 52.5093 11.9566 52.5093 13.2638C52.5094 14.5301 53.1197 15.4649 54.1543 15.522L54.2555 15.5365C55.3394 15.5365 55.7732 14.453 55.7732 13.2753C55.7732 12.922 55.7247 12.5806 55.6404 12.2626C55.6284 12.2156 55.6166 12.1802 55.6046 12.1332C55.3878 11.4855 54.966 11.0142 54.2555 11.0142Z" fill="#080D52"/>
<path d="M125.613 9.31853H127.443V10.3667L127.431 10.3428H125.6V15.2776C125.6 15.5601 125.637 15.7602 125.697 15.8897C125.757 16.0192 125.866 16.1017 126.01 16.137C126.155 16.1723 126.347 16.1959 126.6 16.1959H127.492V17.1501C127.395 17.1854 127.239 17.2205 127.034 17.2441C126.829 17.2676 126.576 17.2911 126.287 17.2911C125.721 17.291 125.287 17.2207 124.986 17.0677C124.673 16.9146 124.468 16.6908 124.336 16.4082C124.216 16.1138 124.156 15.7601 124.156 15.3361V10.3547H122.83V9.31853H124.191L124.541 7.00999H125.613V9.31853Z" fill="#080D52"/>
<path d="M138.053 9.1652C138.342 9.1652 138.632 9.21219 138.945 9.29462C139.258 9.37706 139.547 9.53025 139.8 9.74224C140.065 9.95421 140.282 10.2487 140.45 10.6255C140.619 11.0024 140.703 11.4854 140.703 12.0743V17.2676H139.246V12.2156C139.246 11.7328 139.162 11.3557 139.005 11.0966C138.848 10.8376 138.644 10.6491 138.391 10.5431C138.138 10.4371 137.873 10.3782 137.584 10.3782C137.331 10.3782 137.066 10.4254 136.777 10.5196C136.5 10.6138 136.259 10.7787 136.054 11.0142C135.862 11.2379 135.753 11.556 135.753 11.9564V17.2676H134.308V11.8035C134.308 11.4973 134.224 11.2263 134.055 11.0261C133.887 10.8142 133.67 10.661 133.417 10.555C133.164 10.4491 132.911 10.3902 132.658 10.3902C132.381 10.3902 132.104 10.449 131.827 10.555C131.55 10.661 131.309 10.8377 131.117 11.0731C130.924 11.3086 130.828 11.6148 130.828 11.9799V17.2911H129.37L129.358 17.256V9.31853H130.767V10.4726C130.996 10.1193 131.297 9.82474 131.694 9.55388C132.092 9.29479 132.598 9.16521 133.224 9.1652C133.513 9.1652 133.814 9.21238 134.127 9.30658C134.428 9.40077 134.717 9.55386 134.97 9.74224C135.223 9.93065 135.428 10.178 135.572 10.4606C135.825 10.072 136.163 9.75396 136.596 9.51843C137.03 9.28295 137.511 9.16523 138.053 9.1652Z" fill="#080D52"/>
<path d="M162.658 9.31853H164.489V10.3667L164.477 10.3428H162.646V15.2776C162.646 15.5601 162.682 15.7602 162.742 15.8897C162.803 16.0192 162.911 16.1016 163.056 16.137C163.2 16.1723 163.393 16.1959 163.646 16.1959H164.537V17.1501C164.441 17.1854 164.284 17.2205 164.079 17.2441C163.875 17.2676 163.621 17.2911 163.332 17.2911C162.766 17.291 162.333 17.2207 162.032 17.0677C161.719 16.9146 161.514 16.6908 161.381 16.4082C161.261 16.1138 161.201 15.7601 161.201 15.3361V10.3547H159.876V9.31853H161.237L161.586 7.00999H162.658V9.31853Z" fill="#080D52"/>
<path d="M94.4324 9.21219C94.9503 9.21221 95.4201 9.3067 95.8536 9.50689C96.2871 9.7071 96.6363 10.0132 96.8892 10.4371C97.1542 10.8611 97.2744 11.403 97.2744 12.0743V17.2676H95.8174V12.2156C95.8174 11.5915 95.6486 11.1322 95.3234 10.8378C94.9862 10.5316 94.5648 10.3902 94.035 10.3902C93.6737 10.3902 93.3242 10.4488 92.999 10.5666C92.6859 10.6843 92.4212 10.8496 92.2285 11.0851C92.0238 11.3206 91.9272 11.615 91.9272 11.9683V17.2795H90.4702L90.482 17.256V9.31853H91.8914V10.4726C92.0238 10.2489 92.2042 10.0485 92.433 9.86012C92.6618 9.67169 92.9512 9.51856 93.2763 9.38901C93.6135 9.27128 93.9869 9.21219 94.4324 9.21219Z" fill="#080D52"/>
<path d="M155.432 9.21219C155.95 9.21219 156.42 9.3067 156.853 9.50689C157.287 9.7071 157.636 10.0132 157.889 10.4371C158.154 10.8611 158.274 11.403 158.274 12.0743V17.2676H156.817V12.2156C156.817 11.5915 156.648 11.1322 156.323 10.8378C155.986 10.5316 155.565 10.3902 155.035 10.3902C154.674 10.3902 154.324 10.4488 153.999 10.5666C153.686 10.6843 153.421 10.8495 153.228 11.0851C153.023 11.3206 152.927 11.6151 152.927 11.9683V17.2795H151.47L151.482 17.256V9.31853H152.891V10.4726C153.023 10.2488 153.204 10.0485 153.433 9.86012C153.662 9.67171 153.951 9.51855 154.276 9.38901C154.613 9.27126 154.986 9.21221 155.432 9.21219Z" fill="#080D52"/>
<path d="M7.99704 8.02309H2.78215V10.4606H7.18992V12.4629H2.76992V17.256H0V5.75H7.99704V8.02309Z" fill="#080D52"/>
<path d="M12.1519 17.256H9.51435V9.37747H12.1519V17.256Z" fill="#080D52"/>
<path d="M18.9322 9.22414C19.3778 9.22414 19.8356 9.31852 20.1608 9.4834L19.3899 11.7561C19.0889 11.5677 18.6915 11.4734 18.3303 11.4733C17.2344 11.4733 16.5959 12.357 16.5959 13.8998V17.256H13.9584V9.37747H16.5959V12.7927H16.6322C16.6322 10.5434 17.4871 9.22423 18.9322 9.22414Z" fill="#080D52"/>
<path d="M48.7999 8.02309H42.9229V10.3902H48.2461L48.2339 12.4745H42.9107V14.9829H48.9685V17.256H40.153L40.1648 5.76195H48.7999V8.02309Z" fill="#080D52"/>
<path d="M101.996 15.466H102.128L104.296 9.30658H105.657L102.718 17.256H101.405L98.4668 9.30658H99.8277L101.996 15.466Z" fill="#080D52"/>
<path d="M72.0796 17.2441H69.4424V5.75H72.0796V17.2441Z" fill="#080D52"/>
<path d="M88.0492 17.2441H86.5922V5.75H88.0492V17.2441Z" fill="#080D52"/>
<path d="M32.6377 6.63327C32.6377 8.44689 31.5055 9.37706 30.0001 9.37706V6.63327H32.6377Z" fill="#080D52"/>
<path d="M12.1519 8.02309H9.51435V5.76195H12.1519V8.02309Z" fill="#080D52"/>
</svg>
